# xmcd
#
# Track frame offsets:
#	150
#	3521
#	35792
#	64572
#	100758
#	155348
#	208657
#
# Disc length: 3660 seconds
#
# Revision: 0
# Processed by: cddbd v1.5.2PL0 Copyright (c) Steve Scherf et al.
# Submitted via: audiograbber 1.83.01
#
DISCID=540e4a07
DTITLE=Grateful Dead - 93-06-25 Robert F Kennedy Stadium, Washington DC
DYEAR=1900
DGENRE=
TTITLE0=Crowd and Tuning
TTITLE1=China Cat Sunflower
TTITLE2=I Know You Rider
TTITLE3=Saint Of Circumstance
TTITLE4=Uncle John's Band
TTITLE5=Corrina
TTITLE6=Drums
EXTD=
EXTT0=
EXTT1=
EXTT2=
EXTT3=
EXTT4=
EXTT5=
EXTT6=
PLAYORDER=
